
        <svg xmlns="http://www.w3.org/2000/svg" xmlns:xlink="http://www.w3.org/1999/xlink" version="1.1" width="3153.7028411737306" 
        height="576.3856544014905" viewBox="0 0 3153.7028411737306 576.3856544014905">
			
			<g transform="scale(7.685142058686539) translate(10, 10)">
				<defs id="SvgjsDefs1034"></defs><g id="SvgjsG1035" featureKey="symbolContainer" transform="matrix(1,0,0,1,0,0)" fill="#bf1922"><rect width="84" height="55" rx="5"></rect></g><g id="SvgjsG1036" featureKey="symbolFeature-0" transform="matrix(1.3041304987312288,0,0,1.3041304987312288,9.212316563740423,-4.65006807638129)" fill="#000000"><g xmlns="http://www.w3.org/2000/svg"><path d="M39.9,16.3c0.8,0,1.4-0.6,1.4-1.4c0-0.8-0.6-1.4-1.4-1.4c-0.8,0-1.4,0.6-1.4,1.4c0,0.4,0.1,0.8,0.4,1   C39.1,16.2,39.5,16.3,39.9,16.3z"></path><path d="M1.2,17c-0.1,0.2-1.7,5.2,0.8,8.6c1.2,1.7,3.2,2.7,5.9,2.9c0.4,2.8,2.4,6.7,7.8,6.7h1.1h0.9h2.5c-0.3,1.1-0.5,2.4-0.5,3.7   c0,0.7,0.6,1.2,1.2,1.2c2.7,0,7.2-1.2,9.5-5h13.3c3.1,0,5.7-2.5,5.7-5.7v-14c0-3.1-2.5-5.7-5.7-5.7h-27c-3.1,0-5.7,2.5-5.7,5.7v4.3   c-0.7-0.3-1.4-0.5-2.4-0.5c-2.7,0-5.3-2.9-5.3-2.9c-0.3-0.3-0.7-0.5-1.2-0.4C1.7,16.2,1.4,16.6,1.2,17z M32,29.2   c0.5-1.5,1.1-2.8,2-3.9v7.4h-2.5C31.8,31.6,32,30.5,32,29.2z M43.2,32.7h-2.1V20.2c0.7-0.3,1.4-0.5,2.1-0.7V32.7z M38.6,32.7h-2.1   v-10c0.7-0.5,1.4-1,2.1-1.4V32.7z M45.7,31.9v-13c0.4-0.1,0.8-0.1,1.2-0.2v10.8C46.9,30.5,46.4,31.4,45.7,31.9z M16.7,12.4h27   c1.7,0,3.2,1.4,3.2,3.2v0.7c-1.4,0.1-3.9,0.5-6.6,1.6c-5.5,2.1-9.1,5.8-10.6,10.7c0,0,0,0,0,0c0,0,0,0.1,0,0.1c0,0.1,0,0.1,0,0.2   c0,0.1,0,0.1,0,0.2c0,6.5-4.9,8.1-7.3,8.5c0.3-2.2,1.2-4,2.7-5.2c0.5-0.4,0.6-1.2,0.2-1.8c-0.4-0.5-1.2-0.6-1.8-0.2   c-0.8,0.7-1.5,1.5-2,2.3h-3.1c-1.5-1.7-1.6-3.2-1.5-4.1c2.7-0.2,4.8-1.2,6-2.9c2.5-3.4,0.8-8.4,0.8-8.6c-0.1-0.4-0.5-0.7-0.9-0.8   c-0.4-0.1-0.9,0.1-1.2,0.4c-0.7,0.8-3.1,2.9-5.3,2.9c-1,0-1.8,0.2-2.4,0.5v-4.3C13.6,13.8,15,12.4,16.7,12.4z M3.2,19.8   c1.3,1,3.3,2.2,5.5,2.2c2.1,0,2.4,1.1,2.4,1.2c0,0.1,0,0.1,0.1,0.2c0,0.1,0,0.1,0.1,0.2c0,0.1,0.1,0.1,0.1,0.2   c0.2,0.3,0.6,0.5,1,0.5c0.4,0,0.8-0.2,1-0.6c0,0,0,0,0,0c0-0.1,0.1-0.2,0.1-0.3c0,0,0-0.1,0-0.1c0-0.1,0.3-1.2,2.4-1.2   c2.2,0,4.1-1.1,5.5-2.2c0.1,1.3,0.1,3.1-0.8,4.4c-0.9,1.3-2.6,1.9-5,1.9c-0.5,0-1,0.3-1.2,0.8c-0.1,0.1-1.1,2.8,0.6,5.8   c-4.7-0.3-4.8-4.8-4.8-5.3c0-0.7-0.6-1.2-1.2-1.2c-2.4,0-4.1-0.6-5-1.9C3.1,22.9,3,21.1,3.2,19.8z"></path></g></g><g id="SvgjsG1037" featureKey="nameFeature-0" transform="matrix(1.2911361372448573,0,0,1.2911361372448573,102.96708961261606,-5.460723259554355)" fill="#ffffff"><path d="M33 40 l-4.92 0 l-7.2 -12.64 l-7.2 12.64 l-4.92 0 l-7.96 -28.48 l5.6 0 l5.68 20.52 l6.36 -11.12 l4.92 0 l6.32 11.12 l5.72 -20.52 l5.56 0 z M64.619 40 l-5.36 0 l0 -13.8 l-11.56 0 l0 13.8 l-5.36 0 l0 -28.48 l5.36 0 l0 9.44 l11.56 0 l0 -9.44 l5.36 0 l0 28.48 z M92.398 40 l-5.76 0 l-2.92 -7.68 l-9.44 0 l-2.96 7.68 l-5.72 0 l10.96 -28.48 l4.84 0 z M76.358 27.04 l5.28 0 l-2.64 -6.92 z M113.657 40 l-19.88 0 l0 -28.48 l5.36 0 l0 23.24 l14.52 0 l0 5.24 z M134.276 40 l-18.4 0 l0 -28.48 l18.76 0 l0 5.2 l-13.4 0 l0 4.2 l11.68 0 l0 5.32 l-11.68 0 l0 8.48 l13.04 0 l0 5.28 z M142.095 40 l-5.32 0 l0 -28.48 l10.2 0 c1.96 0 3.8 0.76 5.2 2.16 c1.36 1.4 2.16 3.2 2.16 5.16 c0 4.04 -3.32 7.28 -7.36 7.28 l-4.88 0 l0 13.88 z M142.095 20.88 l4.88 0 c1.12 0 2 -0.92 2 -2.04 s-0.92 -2.08 -2 -2.08 l-4.88 0 l0 4.12 z M178.314 40 l-5.76 0 l-2.92 -7.68 l-9.44 0 l-2.96 7.68 l-5.72 0 l10.96 -28.48 l4.84 0 z M162.274 27.04 l5.28 0 l-2.64 -6.92 z M189.93300000000002 40.24 c-0.92 0 -1.88 -0.12 -2.88 -0.32 c-2.96 -0.6 -5.84 -2.04 -8.36 -4.24 l-0.76 -0.68 l3.52 -4 l0.76 0.68 c1.84 1.6 3.88 2.68 5.88 3.08 l0.04 0 c0.6 0.12 1.2 0.2 1.8 0.2 c1 0 1.92 -0.2 2.68 -0.56 c0.96 -0.4 2.08 -1.28 2.08 -2.92 c0 -0.88 -0.44 -1.56 -1.36 -2.12 c-1.12 -0.68 -2.64 -1.04 -3.72 -1.24 c-0.48 -0.08 -4.56 -0.92 -6.44 -1.96 c-1.24 -0.76 -2.2 -1.72 -2.88 -2.84 c-0.68 -1.16 -1 -2.44 -1 -3.84 c0 -1.52 0.48 -3.04 1.4 -4.44 c0.88 -1.16 2.08 -2.12 3.52 -2.8 s3.04 -1.04 4.76 -1.04 c0.68 0 1.4 0.08 2.12 0.16 c2.64 0.48 5.24 1.68 7.52 3.6 l0.76 0.64 l-3.4 4.12 l-0.76 -0.64 c-2.6 -2.12 -4.84 -2.6 -6.28 -2.6 c-0.92 0 -1.76 0.2 -2.48 0.52 c-1.12 0.52 -1.84 1.48 -1.84 2.44 c0 0.88 0.32 1.44 1.08 1.96 s1.92 0.92 3.76 1.32 c0.24 0.04 0.56 0.12 0.88 0.2 c1.68 0.32 3.92 0.8 5.48 1.72 c1.36 0.72 2.4 1.72 3.12 2.88 s1.08 2.52 1.08 3.96 c0 1.8 -0.48 3.4 -1.44 4.76 c-0.84 1.16 -2.08 2.16 -3.72 2.96 c-1.4 0.72 -2.96 1.04 -4.92 1.04 z M212.51200000000003 40.24 c-0.92 0 -1.88 -0.12 -2.88 -0.32 c-2.96 -0.6 -5.84 -2.04 -8.36 -4.24 l-0.76 -0.68 l3.52 -4 l0.76 0.68 c1.84 1.6 3.88 2.68 5.88 3.08 l0.04 0 c0.6 0.12 1.2 0.2 1.8 0.2 c1 0 1.92 -0.2 2.68 -0.56 c0.96 -0.4 2.08 -1.28 2.08 -2.92 c0 -0.88 -0.44 -1.56 -1.36 -2.12 c-1.12 -0.68 -2.64 -1.04 -3.72 -1.24 c-0.48 -0.08 -4.56 -0.92 -6.44 -1.96 c-1.24 -0.76 -2.2 -1.72 -2.88 -2.84 c-0.68 -1.16 -1 -2.44 -1 -3.84 c0 -1.52 0.48 -3.04 1.4 -4.44 c0.88 -1.16 2.08 -2.12 3.52 -2.8 s3.04 -1.04 4.76 -1.04 c0.68 0 1.4 0.08 2.12 0.16 c2.64 0.48 5.24 1.68 7.52 3.6 l0.76 0.64 l-3.4 4.12 l-0.76 -0.64 c-2.6 -2.12 -4.84 -2.6 -6.28 -2.6 c-0.92 0 -1.76 0.2 -2.48 0.52 c-1.12 0.52 -1.84 1.48 -1.84 2.44 c0 0.88 0.32 1.44 1.08 1.96 s1.92 0.92 3.76 1.32 c0.24 0.04 0.56 0.12 0.88 0.2 c1.68 0.32 3.92 0.8 5.48 1.72 c1.36 0.72 2.4 1.72 3.12 2.88 s1.08 2.52 1.08 3.96 c0 1.8 -0.48 3.4 -1.44 4.76 c-0.84 1.16 -2.08 2.16 -3.72 2.96 c-1.4 0.72 -2.96 1.04 -4.92 1.04 z"></path></g>
			</g>
		</svg>
	